<?xml version="1.0" encoding="UTF-8" standalone="no"?>
<svg
   xmlns:dc="http://purl.org/dc/elements/1.1/"
   xmlns:cc="http://creativecommons.org/ns#"
   xmlns:rdf="http://www.w3.org/1999/02/22-rdf-syntax-ns#"
   xmlns:svg="http://www.w3.org/2000/svg"
   xmlns="http://www.w3.org/2000/svg"
   width="98.244942"
   height="22.114607"
   viewBox="0 0 25.993974 5.8511566"
   version="1.1"
   id="svg8">
  <path
     style="fill:#00a8ab;fill-opacity:1;fill-rule:nonzero;stroke:none;stroke-width:0.352777"
     d="m 23.88694,1.7707784 c -1.09002,0 -1.97472,0.883323 -1.97472,1.973351 0,0.1240229 0.0124,0.243913 0.0358,0.3610459 h 0.99495 c -0.0427,-0.1116208 -0.0675,-0.2328878 -0.0675,-0.3610459 0,-0.558105 0.45338,-1.010102 1.01148,-1.010102 0.55949,0 1.01148,0.451997 1.01148,1.010102 0,0.5594829 -0.45199,1.0114801 -1.01148,1.0114801 -0.1254,0 -0.24667,-0.024799 -0.35828,-0.06615 v 0.9949439 c 0.11575,0.02205 0.23564,0.03445 0.35828,0.03445 0.42031,0 0.75104,-0.1515841 1.05007,-0.4685332 v 0.4547532 h 0.92466 v -1.960949 c 0,-1.090028 -0.8847,-1.97335 -1.97473,-1.97335 m -7.1217,-0.03996 c -1.10105,0 -1.99264,0.892969 -1.99264,1.994021 0,0.1240229 0.011,0.246669 0.033,0.3638021 h 1.00597 c -0.0427,-0.112999 -0.0661,-0.235644 -0.0661,-0.3638021 0,-0.564996 0.4575,-1.021126 1.01974,-1.021126 0.56362,0 1.02251,0.45613 1.02251,1.021126 0,0.5636181 -0.45889,1.0211261 -1.02251,1.0211261 -0.12677,0 -0.24942,-0.024799 -0.36104,-0.06752 v 1.0059681 c 0.11713,0.02205 0.2384,0.03445 0.36104,0.03445 1.10106,0 1.9954,-0.892969 1.9954,-1.994022 0,-1.1010519 -0.89434,-1.9940209 -1.9954,-1.9940209 M 6.20532,3.7248373 V 1.7308164 H 5.2324201 v 1.9940209 c 0,0.1240242 0.010999,0.2466692 0.0344,0.3638021 H 6.27278 C 6.22868,3.9756403 6.20528,3.8529954 6.20528,3.7248373 M 8.1124899,1.7308164 v 1.9940209 c 0,0.5636181 -0.4575098,1.0211271 -1.02113,1.0211271 -0.12816,0 -0.2494198,-0.024799 -0.36243,-0.06752 v 1.005968 c 0.1171401,0.02205 0.2384002,0.03445 0.36243,0.03445 1.10105,0 1.9940201,-0.8929691 1.9940201,-1.994021 v -1.994021 z m 4.0156001,0 c -0.36931,0 -0.71383,0.100597 -1.0101,0.275608 V 0.13229419 H 10.12304 V 4.0886415 h 1.05145 c -0.0427,-0.1129991 -0.0675,-0.235644 -0.0675,-0.3638021 0,-0.564995 0.45613,-1.021126 1.02113,-1.021126 0.56362,0 1.02112,0.456131 1.02112,1.021126 0,0.5636181 -0.4575,1.0211271 -1.02112,1.0211271 -0.12816,0 -0.24943,-0.024799 -0.36242,-0.06752 v 1.0059681 c 0.11713,0.02205 0.23702,0.03445 0.36242,0.03445 1.10105,0 1.99264,-0.892969 1.99264,-1.9940209 0,-1.101053 -0.89159,-1.994021 -1.99264,-1.994021 M 5.23655,0.13229769 H 3.9715101 L 1.43868,2.9255805 3.9715101,5.7174864 H 5.23655 L 2.71198,2.9255805 Z M 21.53323,1.7308224 H 20.55482 V 0.13229569 H 19.56126 V 5.7050824 h 0.99356 v -2.979323 h 0.97841 z M 1.12448,4.0941573 H 0.13229 V 0.13229139 h 0.99219 z m 0,0"
     id="path1253" />
</svg>
