<svg id="Layer_1" data-name="Layer 1" xmlns="http://www.w3.org/2000/svg" xmlns:xlink="http://www.w3.org/1999/xlink" viewBox="0 0 638 522.99"><defs><style>.cls-1{fill:#fc0019;}.cls-2{fill:url(#linear-gradient);}.cls-3{fill:url(#linear-gradient-2);}.cls-4{fill:url(#linear-gradient-3);}.cls-5{fill:url(#linear-gradient-4);}.cls-6{fill:#1a1a1a;}.cls-7{fill:url(#linear-gradient-5);}.cls-8{fill:#fff;}.cls-9{fill:url(#linear-gradient-6);}.cls-10{fill:url(#linear-gradient-7);}.cls-11{fill:url(#linear-gradient-8);}.cls-12{fill:url(#linear-gradient-9);}.cls-13{fill:url(#linear-gradient-10);}.cls-14{fill:url(#linear-gradient-11);}.cls-15{fill:url(#linear-gradient-12);}</style><linearGradient id="linear-gradient" x1="493.66" y1="560.09" x2="493.66" y2="356.06" gradientUnits="userSpaceOnUse"><stop offset="0" stop-color="#ccc"/><stop offset="0.16" stop-color="#f2f2f2"/><stop offset="0.18" stop-color="#efefef"/><stop offset="0.27" stop-color="#e7e7e7"/><stop offset="0.44" stop-color="#e5e5e5"/><stop offset="0.54" stop-color="#cecece"/><stop offset="0.74" stop-color="#929292"/><stop offset="1" stop-color="#3f3f3f"/></linearGradient><linearGradient id="linear-gradient-2" x1="530.46" y1="384.33" x2="461.22" y2="326.23" gradientUnits="userSpaceOnUse"><stop offset="0" stop-color="#e5e5e5"/><stop offset="0.44" stop-color="#e5e5e5"/><stop offset="0.54" stop-color="#cecece"/><stop offset="0.74" stop-color="#929292"/><stop offset="1" stop-color="#3f3f3f"/></linearGradient><linearGradient id="linear-gradient-3" x1="537.14" y1="479.78" x2="436.99" y2="421.96" xlink:href="#linear-gradient-2"/><linearGradient id="linear-gradient-4" x1="493.65" y1="404.62" x2="493.65" y2="294.06" xlink:href="#linear-gradient-2"/><linearGradient id="linear-gradient-5" x1="493.65" y1="239.91" x2="493.65" y2="598.04" gradientUnits="userSpaceOnUse"><stop offset="0" stop-color="#bfbfbf"/><stop offset="0.06" stop-color="#d3d3d3"/><stop offset="0.12" stop-color="#e5e5e5"/><stop offset="0.13" stop-color="#e9e9e9"/><stop offset="0.15" stop-color="#f0f0f0"/><stop offset="0.21" stop-color="#f2f2f2"/><stop offset="0.55" stop-color="#f2f2f2"/><stop offset="0.58" stop-color="#d8d8d8"/><stop offset="0.65" stop-color="#a9a9a9"/><stop offset="0.73" stop-color="#838383"/><stop offset="0.8" stop-color="#656565"/><stop offset="0.87" stop-color="#505050"/><stop offset="0.94" stop-color="#434343"/><stop offset="1" stop-color="#3f3f3f"/></linearGradient><linearGradient id="linear-gradient-6" x1="493.66" y1="239.9" x2="493.66" y2="598.02" xlink:href="#linear-gradient-5"/><linearGradient id="linear-gradient-7" x1="493.65" y1="239.92" x2="493.65" y2="598.06" xlink:href="#linear-gradient-5"/><linearGradient id="linear-gradient-8" x1="493.66" y1="314.17" x2="493.66" y2="416.24" gradientUnits="userSpaceOnUse"><stop offset="0.01" stop-color="#e5e5e5"/><stop offset="1" stop-color="#4d4d4d"/></linearGradient><linearGradient id="linear-gradient-9" x1="529.01" y1="239.91" x2="529.01" y2="415.24" xlink:href="#linear-gradient-2"/><linearGradient id="linear-gradient-10" x1="458.3" y1="239.91" x2="458.3" y2="415.24" xlink:href="#linear-gradient-2"/><linearGradient id="linear-gradient-11" x1="456.2" y1="239.91" x2="456.2" y2="529.86" xlink:href="#linear-gradient-2"/><linearGradient id="linear-gradient-12" x1="531.11" y1="239.91" x2="531.11" y2="529.86" xlink:href="#linear-gradient-2"/></defs><title>Toyota Logo Vector</title><path class="cls-1" d="M499.25,704.71A56.57,56.57,0,0,1,556,647.94c30.85.06,56.17,25.37,56.78,56.77-.61,31-25.93,56.35-56.78,56.78-31.6-.43-56.88-25.75-56.78-56.78ZM556,740.57c17.06-.26,31.2-16.29,31.37-35.86-.17-20-14.31-36-31.37-35.87-17.77-.12-31.93,15.91-31.38,35.87-.55,19.57,13.61,35.6,31.38,35.86" transform="translate(-181 -238.51)"/><polyline class="cls-1" points="496.05 433.33 496.05 520 472.17 520 472.17 433.33 437.79 433.33 437.79 413.92 528.94 413.92 528.94 433.33 496.05 433.33"/><path class="cls-1" d="M738.3,734.58h0l-8.93,23.92H701L745.8,652.42h29.87L819,758.5H790.63l-9-23.92Zm22.44-17.92h14.93L760.74,677.8,745.8,716.66h14.94" transform="translate(-181 -238.51)"/><polyline class="cls-1" points="56.77 433.33 56.77 520 32.86 520 32.86 433.33 0 433.33 0 413.92 89.64 413.92 89.64 433.33 56.77 433.33"/><path class="cls-1" d="M276.62,704.71a56.76,56.76,0,0,1,56.76-56.77c31,.06,56.33,25.37,56.79,56.77a57.82,57.82,0,0,1-56.79,56.78c-31.42-.43-56.71-25.75-56.76-56.78Zm56.76,35.86c17.25-.26,31.38-16.29,31.38-35.86,0-20-14.13-36-31.38-35.87-17.62-.12-31.75,15.91-31.35,35.87-.4,19.57,13.73,35.6,31.35,35.86" transform="translate(-181 -238.51)"/><polyline class="cls-1" points="262.97 520 274.91 520 274.91 479.64 316.75 413.92 289.87 413.92 262.97 458.72 237.56 413.92 209.17 413.92 251.02 479.64 251.02 520 262.97 520"/><path d="M203.36,419c0,99.51,130.23,180.47,290.3,180.47s290.28-81,290.28-180.47S653.72,238.51,493.66,238.51,203.36,319.47,203.36,419Zm2.82,0c0-98,129-177.66,287.48-177.66S781.13,321,781.13,419s-129,177.66-287.47,177.66S206.18,516.94,206.18,419Z" transform="translate(-181 -238.51)"/><path d="M466.12,271.86c-66.39,4.06-116.35,21.88-124.32,44.33a19.6,19.6,0,0,0-1.15,6.51,20.25,20.25,0,0,0,3,10.37c9,15.43,37.86,28.3,79,35.31l1.39.23.23-1.39c7-42.88,22.63-76.73,42.76-92.86l3.46-2.77Zm-120,59.79a17.56,17.56,0,0,1-2.61-9,16.42,16.42,0,0,1,1-5.55h0C351.77,296.5,400,279.37,462.34,275c-19,17.2-33.6,49.66-40.51,90.37C382.78,358.51,354.49,346,346.08,331.65Zm-4.28-15.46Z" transform="translate(-181 -238.51)"/><path d="M456.42,371l-.27,1.53,1.56.12c11.69.89,23.79,1.34,35.94,1.34s24.25-.45,36-1.34l1.54-.12-.27-1.53c-6.4-35.89-20.66-58.18-37.22-58.18S462.81,335.06,456.42,371Zm37.24-55.37c14.86,0,27.86,20.8,34.12,54.3-11.14.81-22.6,1.25-34.13,1.25s-23-.44-34.12-1.25C465.79,336.38,478.77,315.58,493.66,315.58Z" transform="translate(-181 -238.51)"/><path d="M520.22,274.36c20.12,16.14,35.71,50,42.74,92.86l.23,1.39,1.4-.23c41.19-7,70-19.88,79.06-35.31a19.26,19.26,0,0,0,1.84-16.88c-8-22.45-57.91-40.27-124.31-44.33l-4.43-.27ZM525,275c62.35,4.4,110.57,21.53,117.89,42.16a16.66,16.66,0,0,1,1,5.55,17.5,17.5,0,0,1-2.61,9c-8.4,14.33-36.7,26.87-75.75,33.7C558.57,324.63,543.92,292.17,525,275Z" transform="translate(-181 -238.51)"/><path d="M297.44,335.2c-30.14,25.23-46.06,55.12-46.06,86.43,0,74.27,91.31,137.1,212.39,146.14l4.28.31-3.26-2.78c-27.53-23.58-44.65-79-44.65-144.76l.24-12.81-1.18-.23c-66.8-12-112.58-39.41-119.49-71.52l-.49-2.28Zm-43.25,86.43c0-29.86,15.06-58.43,43.43-82.8,8.69,32.06,54.16,59.17,119.9,71.2,0,1.93-.2,10.51-.2,10.51,0,64.06,16.26,118.54,42.6,144C342.37,554.52,254.19,493.58,254.19,421.63Z" transform="translate(-181 -238.51)"/><path d="M452.8,413.53l0,1.63c0,57.58,18,102.68,40.88,102.68s40.86-45.1,40.86-102.68l0-3.15-1.52.13c-12.82,1.13-26,1.69-39.31,1.69s-26.51-.56-39.33-1.69l-1.51-.13Zm2.8,1.63V415c12.43,1,25.21,1.61,38.06,1.61s25.62-.56,38.05-1.61v.12c0,56-16.72,99.87-38.05,99.87S455.6,471.16,455.6,415.16Z" transform="translate(-181 -238.51)"/><path d="M687.59,336c-6.91,32.11-52.69,59.52-119.48,71.52l-1.18.21.23,12.83c0,65.72-17.11,121.18-44.65,144.76l-3.26,2.78,4.28-.31c121.09-9,212.41-71.87,212.41-146.14,0-31.31-15.94-61.2-46.07-86.43l-1.79-1.5Zm2.09,2.85c28.37,24.37,43.44,52.94,43.44,82.8,0,71.94-88.18,132.89-205.74,142.91,26.34-25.46,42.59-79.94,42.59-144,0,0-.15-8.58-.18-10.51C635.52,398,681,370.89,689.68,338.83Z" transform="translate(-181 -238.51)"/><path class="cls-2" d="M687.74,312.14c.41,1.16.79,2.33,1.09,3.51a34.31,34.31,0,0,1-.84,19.8c29.25,24.14,46.54,53.94,46.54,86.18,0,80.55-107.85,145.84-240.87,145.84S252.78,502.18,252.78,421.63c0-32.24,17.28-62,46.54-86.18a34.39,34.39,0,0,1-.85-19.8,22,22,0,0,1,1.39-3.72c-39.93,28.44-64.16,65.75-64.16,106.6,0,89.2,115.48,161.51,258,161.51s258-72.31,258-161.51C751.61,377.77,727.5,340.56,687.74,312.14Z" transform="translate(-181 -238.51)"/><path class="cls-3" d="M457.79,371.21l-7.44,5.39c6.12-46.27,23.19-75.89,43.31-75.89s37.18,29.62,43.3,75.88l-7.46-5.38h0c-6.25-35.09-19.95-57-35.84-57s-29.6,21.95-35.85,57Z" transform="translate(-181 -238.51)"/><path class="cls-4" d="M539.15,402.63l-6,10.92h0c0,.54,0,1.07,0,1.61,0,57.62-17.68,101.27-39.46,101.27s-39.46-43.65-39.46-101.27c0-.63,0-1.26,0-1.89l-6-10.65c-.16,4.08-.24,8.26-.24,12.51,0,65.29,20.48,114.74,45.74,114.74s45.73-49.46,45.73-114.74C539.39,410.88,539.3,406.71,539.15,402.63Z" transform="translate(-181 -238.51)"/><path class="cls-5" d="M529.48,371.2c-11.36.86-23.34,1.33-35.83,1.33s-24.46-.47-35.84-1.33h0l-7.43,5.38c13.7,1.21,28.18,1.88,43.3,1.88s29.58-.67,43.29-1.88l-7.45-5.38Zm131.76-56.59c-9-29.92-83.7-51.9-167.58-51.9s-158.54,22-167.6,51.9c-7.86,26,35.06,50,102.75,59.52L422.92,367h0c-54.75-9.32-87.29-29.19-79.79-50.33,9.09-25.63,75.2-44.23,150.52-44.23S635.08,291,644.17,316.66c7.5,21.14-25,41-79.8,50.33h0l-5.88,7.13C626.19,364.6,669.1,340.58,661.24,314.61Z" transform="translate(-181 -238.51)"/><path class="cls-6" d="M688,335.45a148.67,148.67,0,0,1,28,30,103.31,103.31,0,0,0-19.71-46.87q-4.15-3.3-8.55-6.46c.41,1.16.79,2.33,1.09,3.51A34.31,34.31,0,0,1,688,335.45Z" transform="translate(-181 -238.51)"/><path class="cls-6" d="M299.32,335.45a34.39,34.39,0,0,1-.85-19.8,22,22,0,0,1,1.39-3.72c-3.05,2.17-6,4.4-8.85,6.68a103.3,103.3,0,0,0-19.7,46.86A148.94,148.94,0,0,1,299.32,335.45Z" transform="translate(-181 -238.51)"/><path class="cls-7" d="M204.77,419c0-98.9,129.34-179.07,288.89-179.07S782.53,320.08,782.53,419,653.19,598,493.66,598,204.77,517.88,204.77,419ZM493.66,580c142.45,0,257.94-72.31,257.94-161.51S636.11,257,493.66,257s-258,72.31-258,161.52S351.18,580,493.66,580Z" transform="translate(-181 -238.51)"/><path class="cls-8" d="M234,418.53c0,90,116.49,163.2,259.66,163.2s259.63-73.21,259.63-163.2S636.82,255.32,493.66,255.32,234,328.53,234,418.53Zm3.38,0c0-88.14,115-159.83,256.28-159.83s256.26,71.69,256.26,159.83S635,578.35,493.66,578.35,237.38,506.66,237.38,418.53Z" transform="translate(-181 -238.51)"/><path class="cls-9" d="M425.8,420.54c0-86.25,30.38-157.82,67.86-157.82s67.85,71.57,67.85,157.82c0,87.17-30.38,157.82-67.85,157.82S425.8,507.71,425.8,420.54Zm67.86,109.33c25.26,0,45.73-49.46,45.73-114.74,0-67.75-20.47-114.42-45.73-114.42s-45.74,46.67-45.74,114.42C447.92,480.42,468.4,529.87,493.66,529.87Z" transform="translate(-181 -238.51)"/><path class="cls-10" d="M298.47,315.65c7.45-29.5,97.49-72.4,195.19-72.4s184.63,30.66,195.17,72.4c11.81,46.77-75,89.08-195.17,89.08S286.66,362.42,298.47,315.65Zm195.19-52.94c-83.9,0-158.54,22-167.6,51.9-10.14,33.54,64.36,63.86,167.6,63.86s177.73-30.32,167.58-63.86C652.19,284.69,577.54,262.71,493.66,262.71Z" transform="translate(-181 -238.51)"/><path class="cls-11" d="M448.1,402.59l.06,0,6.2,10.92c12.61,1.1,25.73,1.7,39.3,1.7s26.79-.6,39.45-1.71l6-10.91,0,0c-14.51,1.38-29.72,2.14-45.52,2.14S462.61,404,448.1,402.59Zm241.76-76.85c-1.57,33.46-53,63.08-129,74.25h0l7.43,8.86C642.7,395.5,691.62,362.69,689.86,325.74Zm-392.41,0c-1.76,36.95,47.15,69.76,121.49,83.12l7.43-8.86h0C350.39,388.82,299,359.2,297.45,325.74Z" transform="translate(-181 -238.51)"/><path class="cls-12" d="M558.49,374.15h0l5.87-7.13c-10.23-62.38-38.06-104.3-70.7-104.3C524.14,262.72,549.92,310.07,558.49,374.15Z" transform="translate(-181 -238.51)"/><path class="cls-13" d="M428.82,374.15c8.57-64.08,34.35-111.43,64.84-111.43-32.66,0-60.48,41.92-70.72,104.3l5.88,7.13Z" transform="translate(-181 -238.51)"/><path class="cls-14" d="M425.8,420.54q0-10.44.6-20.54h0L419,408.85c-.13,3.86-.21,7.74-.21,11.69,0,92.29,32.91,157.82,74.92,157.82C456.18,578.36,425.8,507.71,425.8,420.54Z" transform="translate(-181 -238.51)"/><path class="cls-15" d="M568.36,408.85,560.93,400h0c.38,6.74.6,13.58.6,20.54,0,87.17-30.38,157.82-67.85,157.82,42,0,74.91-65.53,74.91-157.82C568.57,416.59,568.48,412.71,568.36,408.85Z" transform="translate(-181 -238.51)"/></svg>